# xmcd
#
# Track frame offsets:
#	150
#	16518
#	30736
#	47856
#	63222
#	78161
#	94828
#	112073
#	136208
#
# Disc length: 2133 seconds
#
# Revision: 0
# Processed by: cddbd v1.5.2PL0 Copyright (c) Steve Scherf et al.
# Submitted via: EZCDAudioConverter 4.1.0.1
#
DISCID=68085309
DTITLE=Stray Train - Just 'cause You Got the Monkey Off Your Back 
DYEAR=2016
DGENRE=Blues Rock
TTITLE0=Soulseller
TTITLE1=I Wish I Could Be Free\n
TTITLE2=Wander Man
TTITLE3=Green Card Paradise
TTITLE4=Blow
TTITLE5=Plastic Princess
TTITLE6=Dead Romance
TTITLE7=Man Or Stone
TTITLE8=Can't Buy Happiness (...Not Even In December)
EXTD=
EXTT0=
EXTT1=
EXTT2=
EXTT3=
EXTT4=
EXTT5=
EXTT6=
EXTT7=
EXTT8=
PLAYORDER=
